<svg width="128" height="128" viewBox="0 0 48 48" xmlns="http://www.w3.org/2000/svg"><g data-name="Layer 2"><path fill="none" data-name="invisible box" d="M0 0h48v48H0z"/><path d="m44.4 11.4-7.8-7.8a1.9 1.9 0 0 0-2.8 0L21.4 16l-2.8 2.8-2.8 2.8-2.8 2.8-9.4 9.4a2 2 0 0 0-.6 1.4V43a2 2 0 0 0 2 2h7.8a2 2 0 0 0 1.4-.6l10.2-10.3 2.9-2.8 1-1 2.8-2.8 13.3-13.3a1.9 1.9 0 0 0 0-2.8ZM11.9 41H7v-4.9l22.4-22.4 4.9 4.9Zm25.2-25.2-4.9-4.9 3-3.1 5 5ZM9 3a7 7 0 0 0-4.5 12.3l7.1 6.2 2.8-2.9-7.3-6.3A2.8 2.8 0 0 1 6 10.1a3.1 3.1 0 0 1 .9-2.2A2.9 2.9 0 0 1 9 7h.2a2.8 2.8 0 0 1 2.1 1l6.4 7.4 2.9-2.9-6.2-7A7.2 7.2 0 0 0 9.3 3Zm28.3 31.9a1.7 1.7 0 0 1 1.4.5c.4.4.5 1.1.4 2.7a14.6 14.6 0 0 0 .2 2.9 8.7 8.7 0 0 1-4.3-1.3 4 4 0 0 1-1-2.7v-.4l.5-.4.4-.5.9-.7h1.4M34 28.7l-6.2 6.1 2.2 2.1a7.8 7.8 0 0 0 2.3 5.8c2.3 1.9 5.8 2.3 8.6 2.3s3.8-.3 4.2-.3.9-.6.9-.8-2.3-1.3-2.8-3.6.7-5.5-1.8-7.8a5.7 5.7 0 0 0-4.1-1.6h-1.2L34 28.7Z" data-name="icons Q2"/></g></svg>