<svg xmlns="http://www.w3.org/2000/svg" width="128" height="128" viewBox="0 0 32 32" xml:space="preserve"><path d="M8 9H4v3h4V9zm-1 2H5v-1h2v1zm1 2H4v3h4v-3zm-1 2H5v-1h2v1zm-1 2a3 3 0 1 0 0 6 3 3 0 0 0 0-6zm0 5c-1.103 0-2-.897-2-2s.897-2 2-2 2 .897 2 2-.897 2-2 2zm15.646-10.354.707.707-2 2-.707-.707 2-2zM31 4h-1.586l-1.707-1.707a.999.999 0 0 0-1.414 0L24.586 4H1a1 1 0 0 0-1 1v22a1 1 0 0 0 1 1h30a1 1 0 0 0 1-1V5a1 1 0 0 0-1-1zM16 14v4h4l8-8v13H11V9h10l-5 5zm1 .707L19.293 17H17v-2.293zm3.146 1.732-2.586-2.586L27 4.414 29.586 7l-9.44 9.439zM2 26V6h22l-2 2H10v16h19V9l1-1v18H2z" style="fill:#111918"/></svg>