<svg width="128" height="128" viewBox="0 -6.33 60.416 60.416" xmlns="http://www.w3.org/2000/svg"><path d="M15.439 23.233a11.89 11.89 0 0 0 3.123-1.5l.12-.085c.142-.1.278-.2.411-.3l.178-.136c.115-.091.24-.2.361-.3l.078-.066.089-.076c.166-.148.335-.307.5-.47l.064-.066c.132-.135.265-.275.394-.419.045-.053.084-.1.125-.146l.039-.047c.1-.112.19-.223.28-.336l.043-.056.1-.135c.1-.13.193-.257.283-.385l.111-.161a11.812 11.812 0 0 0 1.487-3.1l.111-.352A11.888 11.888 0 0 0 11.9 0a12 12 0 0 0-3.8.623l6.427 6.428a3.549 3.549 0 0 1 0 5l-2.467 2.468a3.55 3.55 0 0 1-5 0L.634 8.088a11.994 11.994 0 0 0-.623 3.807 11.878 11.878 0 0 0 11.885 11.883 12 12 0 0 0 3.276-.46ZM59.794 8.092l-6.429 6.431a3.549 3.549 0 0 1-5 0L45.9 12.057a3.553 3.553 0 0 1 0-5.006L52.329.623A12.048 12.048 0 0 0 48.521 0 11.887 11.887 0 0 0 36.64 11.888a11.988 11.988 0 0 0 .453 3.252l.1.306a11.787 11.787 0 0 0 1.514 3.133l.044.064c.124.179.234.326.344.472.036.045.072.095.11.142.1.134.211.26.319.385l.132.152c.146.162.29.317.439.467v.006l.033.033.039.036c.148.148.3.293.461.433l.074.065.081.069c.12.1.25.213.382.316l.087.069.061.047c.143.109.29.217.44.32l.005.005.05.035.065.047a11.771 11.771 0 0 0 3.1 1.489l.341.106a11.883 11.883 0 0 0 15.1-11.438 12.055 12.055 0 0 0-.62-3.807Zm-12.679 32.12-8.356-8.356-4.607 4.607-2.3 2.3 9 9 6.9-6.873-.662-.658Zm-23.533-20.24-.026.037-.084.12c-.105.148-.22.3-.336.454l-.045.057-.095.124a11.52 11.52 0 0 1-.368.435l-.028.032c-.038.049-.079.094-.12.141-.174.193-.352.384-.537.571l-.087.083c-.175.169-.323.311-.476.449a6.701 6.701 0 0 1-.163.139l-.079.066-.043.037c-.1.091-.207.178-.315.263a6.607 6.607 0 0 1-.243.19c-.119.092-.252.193-.386.289l-.21.146c-.156.107-.315.212-.479.314l-.144.092a15.052 15.052 0 0 1-1.441.773l3.779 3.779 6.905-6.9-3.778-3.779a14.381 14.381 0 0 1-.791 1.466l-.055.084a12.74 12.74 0 0 1-.352.537Zm18.955 4.813a14.51 14.51 0 0 1-1.477-.795c-.043-.029-.071-.046-.1-.067-.152-.092-.334-.215-.519-.34l-.072-.05-.069-.05c-.16-.112-.318-.231-.471-.351l-.03-.021-.151-.12a14.36 14.36 0 0 1-.414-.347l-.04-.034c-.05-.04-.1-.083-.15-.127-.161-.146-.317-.3-.472-.448l-.1-.092-.072-.076a16.654 16.654 0 0 1-.46-.487c-.04-.044-.077-.089-.114-.132l-.062-.074a8.293 8.293 0 0 1-.333-.4l-.161-.2a13.505 13.505 0 0 1-.328-.439l-.085-.123-.029-.042c-.12-.172-.235-.346-.346-.525l-.031-.05-.028-.044a14.428 14.428 0 0 1-.79-1.462l-6.995 6.993-6.322 6.324-9.66 9.657 6.873 6.9L29.22 38.1l4.735-4.734Z"/></svg>