<svg xmlns="http://www.w3.org/2000/svg" width="128" height="128" viewBox="0 0 256 205" xml:space="preserve"><path d="M69.939 56.47a7.913 7.913 0 1 1 0 15.827 7.913 7.913 0 0 1 0-15.827zm-12.85 41.933V86.128c0-.609.372-.981.981-.981s.981.372.981.981v12.275h21.778V86.128c0-.609.372-.981.981-.981s.981.372.981.981v12.275h6.932V84.132c0-5.444-4.464-9.874-9.874-9.874H60.065c-5.444 0-9.874 4.464-9.874 9.874v14.271h6.898zM69.973 158.1c-12.409 0-22.45 10.041-22.45 22.45 0 12.409 10.041 22.45 22.45 22.45 12.409 0 22.45-10.041 22.45-22.45 0-12.409-10.041-22.45-22.45-22.45zm0 31.049c-4.714 0-8.599-3.885-8.599-8.599s3.886-8.599 8.599-8.599c4.714 0 8.599 3.886 8.599 8.599s-3.885 8.599-8.599 8.599zm141.331-32.005c-12.409 0-22.45 10.041-22.45 22.45 0 12.409 10.041 22.45 22.45 22.45 12.409 0 22.45-10.041 22.45-22.45 0-12.409-10.041-22.45-22.45-22.45zm0 31.049c-4.714 0-8.599-3.885-8.599-8.599s3.886-8.599 8.599-8.599c4.714 0 8.599 3.886 8.599 8.599s-3.886 8.599-8.599 8.599zm40.753-28.597H247.2v-21.369c0-7.184-5.361-12.627-12.627-12.627h-23.312c-.49 0-1.068-.26-1.394-.587l-36.328-35.361c-1.633-1.633-3.619-2.823-5.986-2.905h-26.226v89.361h38.853c.898 0 1.779-1.126 1.943-1.943 2.449-14.042 14.405-24.696 29.181-24.696 14.776 0 27.022 10.694 29.471 24.736.163.898 1.643 1.903 2.541 1.903h1.943c4.653 0 8.742-4.189 8.742-8.76v-6.041c-.001-.898-.964-1.711-1.944-1.711zm-59.25-33.996h-39.824c-.98 0-1.943-.963-1.943-1.943V98.58c0-.98.963-2.12 1.943-2.12h12.627c.49 0 1.48.539 1.888.865l26.28 25.36c.98 1.226.58 2.915-.971 2.915zM2 33.833c0 8.025 5.497 14.676 12.916 16.599v51.062H9.229v66.3c0 4.353 3.418 8.314 7.771 8.314h21.369c.898 0 1.779-1.127 1.943-1.943 2.449-14.042 14.886-23.74 29.662-23.74s27.022 9.738 29.471 23.78c.163.898 1.162 1.902 2.06 1.903h32.053v-74.614h-6.841V50.432c7.421-1.924 13.151-8.629 13.151-16.655v-4.134H2v4.19zm34.408 0c0 3.544 3.694 17.217 17.348 17.217 11.859 0 17.061-10.731 17.061-17.217 0 6.046 4.052 17.204 17.204 17.204 11.883 0 17.149-11.488 17.149-17.204 0 8.025 5.497 14.676 12.916 16.599v51.062H23.492V50.432c7.42-1.923 12.916-8.574 12.916-16.599zM122.543 8.64V2.42H19.413v6.22h-.18L2 25.873h137.866L122.633 8.64h-.09z"/></svg>