<svg width="128" height="128" viewBox="0 0 24 24" xml:space="preserve" xmlns="http://www.w3.org/2000/svg"><style>.st0{opacity:.2;fill:none;stroke:#000;stroke-width:5.000000e-02;stroke-miterlimit:10}</style><g id="grid_system"/><path d="M12 3C9.6 3 7.5 4.5 6.5 6.9c-.7 1.8-.7 3.9.1 5.7l1.6 3.6v2c0 1 .8 1.8 1.8 1.8 0 .6.4 1 1 1h1.8c.6 0 1-.4 1-1 1 0 1.8-.8 1.8-1.8v-2l1.6-3.6c.8-1.8.8-3.9.1-5.7C16.5 4.5 14.4 3 12 3zm1.8 15h-3.5v-1h3.5v1zm1.8-6.2L14.1 15H13v-1.3c.5-.1.8-.5.8-1 0-.6-.4-1-1-1h-1.7c-.6 0-1 .4-1 1 0 .5.4.9.8 1V15h-1l-1.4-3.2c-.6-1.3-.6-2.8-.1-4.1C9.1 6 10.4 5 12 5s2.9 1 3.6 2.7c.5 1.3.5 2.8 0 4.1zM3.7 4.3c-.4-.4-1-.4-1.4 0s-.4 1 0 1.4l1 1c.2.2.4.3.7.3s.5-.1.7-.3c.4-.4.4-1 0-1.4l-1-1zM3 10c.6 0 1-.4 1-1s-.4-1-1-1H2c-.6 0-1 .4-1 1s.4 1 1 1h1zm.3 1.3-1 1c-.4.4-.4 1 0 1.4.2.2.4.3.7.3s.5-.1.7-.3l1-1c.4-.4.4-1 0-1.4s-1-.4-1.4 0zm17.4 0c-.4-.4-1-.4-1.4 0s-.4 1 0 1.4l1 1c.2.2.5.3.7.3s.5-.1.7-.3c.4-.4.4-1 0-1.4l-1-1zM22 8h-1c-.6 0-1 .4-1 1s.4 1 1 1h1c.6 0 1-.4 1-1s-.4-1-1-1zm-2-1c.3 0 .5-.1.7-.3l1-1c.4-.4.4-1 0-1.4s-1-.4-1.4 0l-1 1c-.4.4-.4 1 0 1.4.2.2.4.3.7.3z" id="_icons"/></svg>