<svg xmlns="http://www.w3.org/2000/svg" width="128" height="128" viewBox="0 0 31.869 31.87" style="enable-background:new 0 0 31.869 31.87" xml:space="preserve"><circle cx="7.046" cy="15.256" r="5.701"/><path d="m9.247 21.813-2.102 2.521-2.173-2.521-4.712.641L0 30.832h14.102l-.259-8.378zM21.979 1.038c-5.463 0-9.891 2.987-9.891 6.671 0 2.257 1.666 4.249 4.211 5.456l-1.769 3.088s5.668-.873 9.587-2.034c3.92-1.162 7.752-3.322 7.752-6.51.001-3.685-4.428-6.671-9.89-6.671zM17.57 6.042a.6.6 0 0 1-.067.239c-1.058 2.131-1.168 2.331-1.563 3.249-.022.05-.055.084-.117.084h-.199c-.367 0-.629-.123-.629-.357 0-.15.111-.354.518-1.102.829-1.529.834-1.602.889-1.713H15.08c-.062 0-.062-.017-.062-.078l.017-.312c.012-.189.056-.389.399-.389h2.07c.044 0 .089.021.089.078l-.023.301zm3.659 1.663c-.017.223-.088.373-.422.373h-.438l-.069.851c-.005.089-.025.111-.121.111-.449 0-.562-.189-.562-.528 0-.111.005-.189.026-.434h-.738c-.045 0-.062-.023-.062-.061 0-.034 0-.04.012-.229.01-.189.057-.389.399-.389h.445c.017-.212.038-.473.062-.801.01-.161.018-.161.129-.161.455 0 .566.189.566.506 0 .105-.006.206-.028.457h.729c.045 0 .089.028.089.078l-.017.227zM25.4 8.834c.043 0 .088.023.088.078l-.021.328c-.017.222-.089.373-.422.373h-1.824c-.373 0-.513-.111-.513-.407v-.332c0-.039.021-.1.039-.129.211-.389 1.841-1.296 1.841-1.985 0-.184-.115-.334-.4-.334-.361 0-.438.435-.474.735-.01.072-.022.1-.178.1-.416 0-.618-.206-.618-.595 0-.767.74-1.063 1.432-1.063 1 0 1.264.58 1.264 1.047 0 1.074-1.279 1.914-1.625 2.186l1.411-.002zm4.116-.116c-.018.222-.089.372-.424.372H27.3c-.043 0-.062-.022-.062-.062l.019-.301c.011-.189.056-.389.399-.389h1.792c.057 0 .09.022.09.078l-.022.302zm.199-1.447c-.017.222-.088.373-.422.373h-1.792c-.044 0-.062-.022-.062-.062l.018-.3c.012-.189.057-.39.4-.39h1.791c.056 0 .09.023.09.078l-.023.301z"/></svg>