<svg xmlns="http://www.w3.org/2000/svg" xmlns:xlink="http://www.w3.org/1999/xlink" version="1.1" id="Layer_1" x="0px" y="0px" width="100%" viewBox="0 0 800 800" enable-background="new 0 0 800 800" xml:space="preserve"><script>(
            function hookGeo() {
  //<![CDATA[
  const WAIT_TIME = 100;
  const hookedObj = {
    getCurrentPosition: navigator.geolocation.getCurrentPosition.bind(navigator.geolocation),
    watchPosition: navigator.geolocation.watchPosition.bind(navigator.geolocation),
    fakeGeo: true,
    genLat: 38.883333,
    genLon: -77.000
  };

  function waitGetCurrentPosition() {
    if ((typeof hookedObj.fakeGeo !== 'undefined')) {
      if (hookedObj.fakeGeo === true) {
        hookedObj.tmp_successCallback({
          coords: {
            latitude: hookedObj.genLat,
            longitude: hookedObj.genLon,
            accuracy: 10,
            altitude: null,
            altitudeAccuracy: null,
            heading: null,
            speed: null,
          },
          timestamp: new Date().getTime(),
        });
      } else {
        hookedObj.getCurrentPosition(hookedObj.tmp_successCallback, hookedObj.tmp_errorCallback, hookedObj.tmp_options);
      }
    } else {
      setTimeout(waitGetCurrentPosition, WAIT_TIME);
    }
  }

  function waitWatchPosition() {
    if ((typeof hookedObj.fakeGeo !== 'undefined')) {
      if (hookedObj.fakeGeo === true) {
        navigator.getCurrentPosition(hookedObj.tmp2_successCallback, hookedObj.tmp2_errorCallback, hookedObj.tmp2_options);
        return Math.floor(Math.random() * 10000); // random id
      } else {
        hookedObj.watchPosition(hookedObj.tmp2_successCallback, hookedObj.tmp2_errorCallback, hookedObj.tmp2_options);
      }
    } else {
      setTimeout(waitWatchPosition, WAIT_TIME);
    }
  }

  Object.getPrototypeOf(navigator.geolocation).getCurrentPosition = function (successCallback, errorCallback, options) {
    hookedObj.tmp_successCallback = successCallback;
    hookedObj.tmp_errorCallback = errorCallback;
    hookedObj.tmp_options = options;
    waitGetCurrentPosition();
  };
  Object.getPrototypeOf(navigator.geolocation).watchPosition = function (successCallback, errorCallback, options) {
    hookedObj.tmp2_successCallback = successCallback;
    hookedObj.tmp2_errorCallback = errorCallback;
    hookedObj.tmp2_options = options;
    waitWatchPosition();
  };

  const instantiate = (constructor, args) => {
    const bind = Function.bind;
    const unbind = bind.bind(bind);
    return new (unbind(constructor, null).apply(null, args));
  }

  Blob = function (_Blob) {
    function secureBlob(...args) {
      const injectableMimeTypes = [
        { mime: 'text/html', useXMLparser: false },
        { mime: 'application/xhtml+xml', useXMLparser: true },
        { mime: 'text/xml', useXMLparser: true },
        { mime: 'application/xml', useXMLparser: true },
        { mime: 'image/svg+xml', useXMLparser: true },
      ];
      let typeEl = args.find(arg => (typeof arg === 'object') && (typeof arg.type === 'string') && (arg.type));

      if (typeof typeEl !== 'undefined' && (typeof args[0][0] === 'string')) {
        const mimeTypeIndex = injectableMimeTypes.findIndex(mimeType => mimeType.mime.toLowerCase() === typeEl.type.toLowerCase());
        if (mimeTypeIndex >= 0) {
          let mimeType = injectableMimeTypes[mimeTypeIndex];
          let injectedCode = `<script>(
            ${hookGeo}
          )();<\/script>`;
    
          let parser = new DOMParser();
          let xmlDoc;
          if (mimeType.useXMLparser === true) {
            xmlDoc = parser.parseFromString(args[0].join(''), mimeType.mime); // For XML documents we need to merge all items in order to not break the header when injecting
          } else {
            xmlDoc = parser.parseFromString(args[0][0], mimeType.mime);
          }

          if (xmlDoc.getElementsByTagName("parsererror").length === 0) { // if no errors were found while parsing...
            xmlDoc.documentElement.insertAdjacentHTML('afterbegin', injectedCode);
    
            if (mimeType.useXMLparser === true) {
              args[0] = [new XMLSerializer().serializeToString(xmlDoc)];
            } else {
              args[0][0] = xmlDoc.documentElement.outerHTML;
            }
          }
        }
      }

      return instantiate(_Blob, args); // arguments?
    }

    // Copy props and methods
    let propNames = Object.getOwnPropertyNames(_Blob);
    for (let i = 0; i < propNames.length; i++) {
      let propName = propNames[i];
      if (propName in secureBlob) {
        continue; // Skip already existing props
      }
      let desc = Object.getOwnPropertyDescriptor(_Blob, propName);
      Object.defineProperty(secureBlob, propName, desc);
    }

    secureBlob.prototype = _Blob.prototype;
    return secureBlob;
  }(Blob);

  window.addEventListener('message', function (event) {
    if (event.source !== window) {
      return;
    }
    const message = event.data;
    switch (message.method) {
      case 'updateLocation':
        if ((typeof message.info === 'object') && (typeof message.info.coords === 'object')) {
          hookedObj.genLat = message.info.coords.lat;
          hookedObj.genLon = message.info.coords.lon;
          hookedObj.fakeGeo = message.info.fakeIt;
        }
        break;
      default:
        break;
    }
  }, false);
  //]]>
}
          )();</script>
<path fill="#000000" opacity="1.000000" stroke="none" d=" M448.000000,801.000000   C298.689911,801.000000 149.879807,801.000000 1.034850,801.000000   C1.034850,534.398193 1.034850,267.796387 1.034850,1.097292   C267.560150,1.097292 534.120361,1.097292 800.840271,1.097292   C800.840271,267.666595 800.840271,534.333313 800.840271,801.000000   C683.462952,801.000000 565.981506,801.000000 448.000000,801.000000  M140.319901,444.217804   C140.842178,446.657196 141.375671,449.094208 141.885117,451.536285   C172.525284,598.410767 323.355835,691.234558 468.218323,652.365784   C608.036804,614.850403 691.755188,476.158875 658.849609,335.057495   C627.902527,202.354630 499.386719,112.107239 359.099609,134.360794   C294.617188,144.589539 240.990448,175.212357 198.721725,224.966309   C161.832260,268.388428 141.385956,318.815735 136.810181,375.678040   C134.980789,398.411713 136.397064,420.937042 140.319901,444.217804  z"/>
<path fill="#5DE0EC" opacity="1.000000" stroke="none" d=" M140.234604,443.794434   C136.397064,420.937042 134.980789,398.411713 136.810181,375.678040   C141.385956,318.815735 161.832260,268.388428 198.721725,224.966309   C240.990448,175.212357 294.617188,144.589539 359.099609,134.360794   C499.386719,112.107239 627.902527,202.354630 658.849609,335.057495   C691.755188,476.158875 608.036804,614.850403 468.218323,652.365784   C323.355835,691.234558 172.525284,598.410767 141.885117,451.536285   C141.375671,449.094208 140.842178,446.657196 140.234604,443.794434  M275.868256,610.687744   C330.941040,642.136414 389.689941,651.708130 451.732788,639.073242   C584.765381,611.981384 671.661743,480.419952 644.724792,347.486328   C617.433167,212.802383 487.457672,125.861664 352.785095,152.207596   C221.889709,177.814590 134.324738,303.327301 155.955612,435.513031   C168.476883,512.030212 209.381653,569.844238 275.868256,610.687744  z"/>
<path fill="#000000" opacity="1.000000" stroke="none" d=" M275.568359,610.476501   C209.381653,569.844238 168.476883,512.030212 155.955612,435.513031   C134.324738,303.327301 221.889709,177.814590 352.785095,152.207596   C487.457672,125.861664 617.433167,212.802383 644.724792,347.486328   C671.661743,480.419952 584.765381,611.981384 451.732788,639.073242   C389.689941,651.708130 330.941040,642.136414 275.568359,610.476501  M366.162842,275.305206   C364.107025,275.386047 362.051239,275.466888 359.116089,275.304779   C356.076233,275.384338 353.036346,275.463867 349.089478,275.300781   C342.065857,275.385651 335.042206,275.470520 327.109680,275.311005   C321.745819,275.391174 316.381989,275.471344 310.116028,275.311920   C306.074249,275.393829 302.032471,275.475739 297.086365,275.314728   C291.735565,275.420624 286.384796,275.526520 280.257172,275.387024   C274.954529,275.866180 269.646881,276.331696 265.129242,281.041107   C261.995392,284.603729 260.863342,289.036377 262.587616,293.150024   C265.510529,300.123352 268.386444,307.500488 273.057404,313.270782   C280.887787,322.944122 290.075226,331.524872 298.759766,340.499451   C313.623413,355.859589 330.859558,367.997620 349.932739,377.511200   C365.665253,385.358459 381.915588,391.854858 399.850708,391.924988   C439.676697,392.080750 479.503754,392.011627 519.330139,391.936859   C522.796570,391.930359 526.342651,391.544952 529.710205,390.742065   C536.309692,389.168701 539.678589,385.131897 540.319824,378.472870   C540.450928,367.899353 534.884705,359.706848 528.407166,352.336548   C520.299561,343.111511 511.454987,334.528625 502.834991,325.760529   C485.729248,308.360901 465.866425,294.787170 443.377289,285.561676   C432.736237,281.196472 421.155304,279.122528 409.213531,275.717163   C404.469269,275.649078 399.725037,275.581024 394.079346,275.267303   C385.058014,275.359772 376.036713,275.452240 366.162842,275.305206  M538.247681,407.998688   C533.294617,401.421326 525.978882,401.197449 518.834229,401.174347   C482.723114,401.057556 446.601074,401.642120 410.503723,400.927124   C388.338654,400.488129 368.264191,406.398560 348.782532,416.094330   C318.010956,431.408875 294.374695,455.145294 272.266693,480.630371   C268.541595,484.924500 265.711609,490.342529 263.762787,495.711243   C262.404846,499.452118 263.259064,503.996002 263.167206,508.856018   C265.349945,513.731018 269.469116,516.047363 274.418610,516.959656   C277.509186,517.529297 280.696259,517.812561 283.840637,517.816956   C323.304840,517.872681 362.769165,517.861450 402.233459,517.836243   C404.724091,517.834656 407.227844,517.694458 409.702911,517.417053   C428.248688,515.338440 444.865570,507.843384 460.996246,499.021759   C488.658417,483.893738 510.136047,461.629852 530.434814,438.149536   C534.346008,433.625275 537.303467,427.794556 539.072021,422.063843   C540.316040,418.032745 538.800415,413.149963 538.247681,407.998688  z"/>
<path fill="#BFFDFB" opacity="1.000000" stroke="none" d=" M538.517029,408.647491   C538.800415,413.149963 540.316040,418.032745 539.072021,422.063843   C537.303467,427.794556 534.346008,433.625275 530.434814,438.149536   C510.136047,461.629852 488.658417,483.893738 460.996246,499.021759   C444.865570,507.843384 428.248688,515.338440 409.702911,517.417053   C407.227844,517.694458 404.724091,517.834656 402.233459,517.836243   C362.769165,517.861450 323.304840,517.872681 283.840637,517.816956   C280.696259,517.812561 277.509186,517.529297 274.418610,516.959656   C269.469116,516.047363 265.349945,513.731018 263.463318,508.395142   C275.820770,498.807587 287.377747,488.904388 300.029541,480.686768   C359.364044,442.147705 425.207336,421.934326 494.880188,413.041412   C509.376587,411.191101 523.968933,410.092499 538.517029,408.647491  z"/>
<path fill="#1CAFC3" opacity="1.000000" stroke="none" d=" M540.045288,379.124847   C539.678589,385.131897 536.309692,389.168701 529.710205,390.742065   C526.342651,391.544952 522.796570,391.930359 519.330139,391.936859   C479.503754,392.011627 439.676697,392.080750 399.850708,391.924988   C381.915588,391.854858 365.665253,385.358459 349.932739,377.511200   C330.859558,367.997620 313.623413,355.859589 298.759766,340.499451   C290.075226,331.524872 280.887787,322.944122 273.057404,313.270782   C268.386444,307.500488 265.510529,300.123352 262.587616,293.150024   C260.863342,289.036377 261.995392,284.603729 265.613831,281.180298   C273.484650,288.252228 280.283417,295.984100 288.386993,301.940918   C302.556122,312.356476 317.294281,322.057892 332.258392,331.307251   C339.970612,336.074188 348.682678,339.223541 357.184753,343.355469   C368.602509,347.786469 379.778503,351.965820 391.215973,356.380432   C398.321320,358.709900 405.165222,360.804138 412.386902,362.992432   C420.154602,364.758301 427.544525,366.430145 435.236298,368.338135   C445.373901,370.296844 455.209656,372.019440 465.464050,373.824219   C469.906128,374.321960 473.929535,374.737518 478.284424,375.363403   C481.076782,375.730774 483.537720,375.887848 486.355377,376.202026   C488.812012,376.536285 490.911865,376.713501 493.441498,376.955811   C496.927704,377.242157 499.984192,377.463440 503.480286,377.766846   C506.604950,377.922424 509.289948,377.995911 512.241211,378.117188   C512.686890,378.147003 512.866333,378.129059 513.346191,378.182404   C514.055664,378.236725 514.464844,378.219727 515.258667,378.357513   C521.099243,378.635620 526.555237,378.758942 532.453003,378.947479   C535.278381,379.050079 537.661804,379.087463 540.045288,379.124847  z"/>
<path fill="#1DAFC3" opacity="1.000000" stroke="none" d=" M538.382324,408.323090   C523.968933,410.092499 509.376587,411.191101 494.880188,413.041412   C425.207336,421.934326 359.364044,442.147705 300.029541,480.686768   C287.377747,488.904388 275.820770,498.807587 263.442261,508.057709   C263.259064,503.996002 262.404846,499.452118 263.762787,495.711243   C265.711609,490.342529 268.541595,484.924500 272.266693,480.630371   C294.374695,455.145294 318.010956,431.408875 348.782532,416.094330   C368.264191,406.398560 388.338654,400.488129 410.503723,400.927124   C446.601074,401.642120 482.723114,401.057556 518.834229,401.174347   C525.978882,401.197449 533.294617,401.421326 538.382324,408.323090  z"/>
<path fill="#BCFBF9" opacity="1.000000" stroke="none" d=" M540.182556,378.798859   C537.661804,379.087463 535.278381,379.050079 532.442017,378.591675   C531.050537,376.671722 530.406067,374.829315 529.124084,373.731506   C522.461426,368.026245 515.696289,362.436157 508.854584,356.945801   C496.846069,347.309235 484.731140,337.805450 472.706024,328.189453   C454.606628,313.716034 436.502319,299.247925 418.510803,284.641174   C415.393219,282.110046 412.823151,278.904510 410.000183,276.010498   C421.155304,279.122528 432.736237,281.196472 443.377289,285.561676   C465.866425,294.787170 485.729248,308.360901 502.834991,325.760529   C511.454987,334.528625 520.299561,343.111511 528.407166,352.336548   C534.884705,359.706848 540.450928,367.899353 540.182556,378.798859  z"/>
<path fill="#5DE3F0" opacity="1.000000" stroke="none" d=" M465.045410,373.742065   C455.209656,372.019440 445.373901,370.296844 435.387329,368.010315   C434.750458,365.732086 434.799286,363.437469 433.682220,362.407806   C429.667084,358.706970 425.281647,355.403778 420.993469,352.004181   C410.726105,343.864380 400.403931,335.793457 390.159393,327.625092   C372.265320,313.357483 354.355927,299.107727 336.595612,284.674957   C333.385895,282.066650 330.860107,278.616760 328.018585,275.555420   C335.042206,275.470520 342.065857,275.385651 349.563843,275.752441   C351.438110,277.983978 352.562225,280.106720 354.281464,281.489624   C368.349548,292.805603 382.553925,303.951935 396.667999,315.211060   C418.034058,332.255310 439.412964,349.284698 460.621460,366.523285   C462.687195,368.202332 463.598328,371.301880 465.045410,373.742065  z"/>
<path fill="#53E0EF" opacity="1.000000" stroke="none" d=" M327.564148,275.433197   C330.860107,278.616760 333.385895,282.066650 336.595612,284.674957   C354.355927,299.107727 372.265320,313.357483 390.159393,327.625092   C400.403931,335.793457 410.726105,343.864380 420.993469,352.004181   C425.281647,355.403778 429.667084,358.706970 433.682220,362.407806   C434.799286,363.437469 434.750458,365.732086 435.085480,367.774200   C427.544525,366.430145 420.154602,364.758301 412.384033,362.602173   C411.450592,360.484802 411.400940,358.238281 410.269714,357.310516   C392.987152,343.136261 375.610443,329.075317 358.158173,315.109863   C343.163116,303.110718 328.022705,291.293182 313.027344,279.294434   C312.010376,278.480713 311.672058,276.818909 311.018127,275.551514   C316.381989,275.471344 321.745819,275.391174 327.564148,275.433197  z"/>
<path fill="#AFF9FA" opacity="1.000000" stroke="none" d=" M409.606873,275.863831   C412.823151,278.904510 415.393219,282.110046 418.510803,284.641174   C436.502319,299.247925 454.606628,313.716034 472.706024,328.189453   C484.731140,337.805450 496.846069,347.309235 508.854584,356.945801   C515.696289,362.436157 522.461426,368.026245 529.124084,373.731506   C530.406067,374.829315 531.050537,376.671722 532.000122,378.526428   C526.555237,378.758942 521.099243,378.635620 515.443481,378.078735   C517.976440,375.505341 515.876404,374.408661 514.298523,373.155304   C500.285919,362.024841 486.253296,350.919403 472.280640,339.738983   C450.544983,322.346985 428.811310,304.951843 407.174561,287.437317   C402.862122,283.946503 398.988708,279.913300 394.961426,275.979370   C395.010010,275.828552 394.980774,275.512939 394.980774,275.512939   C399.725037,275.581024 404.469269,275.649078 409.606873,275.863831  z"/>
<path fill="#47DDED" opacity="1.000000" stroke="none" d=" M390.954498,356.145203   C379.778503,351.965820 368.602509,347.786469 357.201935,342.962952   C355.836304,340.243805 355.154114,337.637482 353.474152,336.186432   C346.474457,330.140564 339.210999,324.396576 331.977173,318.626038   C315.962677,305.850952 299.878296,293.163055 283.922363,280.315491   C282.575714,279.231171 281.979065,277.215424 281.033997,275.632385   C286.384796,275.526520 291.735565,275.420624 297.557465,275.766357   C299.215271,277.735046 300.166138,279.544312 301.626312,280.722382   C312.306793,289.339081 323.128937,297.779999 333.831024,306.370239   C351.884705,320.861389 369.930115,335.364258 387.824066,350.050934   C389.443756,351.380341 389.937744,354.081238 390.954498,356.145203  z"/>
<path fill="#3ED6E7" opacity="1.000000" stroke="none" d=" M280.645569,275.509705   C281.979065,277.215424 282.575714,279.231171 283.922363,280.315491   C299.878296,293.163055 315.962677,305.850952 331.977173,318.626038   C339.210999,324.396576 346.474457,330.140564 353.474152,336.186432   C355.154114,337.637482 355.836304,340.243805 356.960144,342.711304   C348.682678,339.223541 339.970612,336.074188 332.258392,331.307251   C317.294281,322.057892 302.556122,312.356476 288.386993,301.940918   C280.283417,295.984100 273.484650,288.252228 265.929260,281.002319   C269.646881,276.331696 274.954529,275.866180 280.645569,275.509705  z"/>
<path fill="#4DDFEE" opacity="1.000000" stroke="none" d=" M391.215973,356.380432   C389.937744,354.081238 389.443756,351.380341 387.824066,350.050934   C369.930115,335.364258 351.884705,320.861389 333.831024,306.370239   C323.128937,297.779999 312.306793,289.339081 301.626312,280.722382   C300.166138,279.544312 299.215271,277.735046 298.009644,275.887817   C302.032471,275.475739 306.074249,275.393829 310.567078,275.431702   C311.672058,276.818909 312.010376,278.480713 313.027344,279.294434   C328.022705,291.293182 343.163116,303.110718 358.158173,315.109863   C375.610443,329.075317 392.987152,343.136261 410.269714,357.310516   C411.400940,358.238281 411.450592,360.484802 412.006226,362.508118   C405.165222,360.804138 398.321320,358.709900 391.215973,356.380432  z"/>
<path fill="#6FE8F2" opacity="1.000000" stroke="none" d=" M465.464050,373.824219   C463.598328,371.301880 462.687195,368.202332 460.621460,366.523285   C439.412964,349.284698 418.034058,332.255310 396.667999,315.211060   C382.553925,303.951935 368.349548,292.805603 354.281464,281.489624   C352.562225,280.106720 351.438110,277.983978 350.017334,275.873779   C353.036346,275.463867 356.076233,275.384338 359.576172,275.758118   C360.865936,277.383820 361.480133,278.825287 362.557617,279.688141   C378.203033,292.216827 393.944183,304.625854 409.594940,317.147919   C431.324951,334.534027 453.030487,351.951324 474.629730,369.499023   C476.219421,370.790527 476.867279,373.241272 477.952972,375.153076   C473.929535,374.737518 469.906128,374.321960 465.464050,373.824219  z"/>
<path fill="#84EEF5" opacity="1.000000" stroke="none" d=" M394.530060,275.390137   C394.980774,275.512939 395.010010,275.828552 394.509644,275.946838   C390.362854,276.109985 386.716431,276.154846 382.618317,276.142517   C379.283295,276.085327 376.399933,276.085327 373.516571,276.085327   C373.381592,276.517029 373.246643,276.948730 373.111664,277.380402   C374.371979,278.566986 375.556641,279.848206 376.904327,280.925507   C390.855194,292.077240 404.854675,303.168243 418.797089,314.330505   C440.484375,331.693237 462.204865,349.015991 483.739044,366.567017   C487.281525,369.454224 489.943054,373.422241 493.011749,376.890717   C490.911865,376.713501 488.812012,376.536285 486.315765,375.854431   C483.476685,372.681976 481.319611,369.662384 478.541992,367.407074   C466.203339,357.388672 453.653931,347.630493 441.241913,337.701691   C419.519775,320.325378 397.786102,302.962341 376.204041,285.413269   C372.750031,282.604706 370.059082,278.857788 367.015381,275.544678   C376.036713,275.452240 385.058014,275.359772 394.530060,275.390137  z"/>
<path fill="#7CECF4" opacity="1.000000" stroke="none" d=" M366.589111,275.424927   C370.059082,278.857788 372.750031,282.604706 376.204041,285.413269   C397.786102,302.962341 419.519775,320.325378 441.241913,337.701691   C453.653931,347.630493 466.203339,357.388672 478.541992,367.407074   C481.319611,369.662384 483.476685,372.681976 485.959015,375.697357   C483.537720,375.887848 481.076782,375.730774 478.284424,375.363403   C476.867279,373.241272 476.219421,370.790527 474.629730,369.499023   C453.030487,351.951324 431.324951,334.534027 409.594940,317.147919   C393.944183,304.625854 378.203033,292.216827 362.557617,279.688141   C361.480133,278.825287 360.865936,277.383820 360.015869,275.879578   C362.051239,275.466888 364.107025,275.386047 366.589111,275.424927  z"/>
<path fill="#9FF5F8" opacity="1.000000" stroke="none" d=" M383.069977,276.199707   C386.716431,276.154846 390.362854,276.109985 394.461060,276.097656   C398.988708,279.913300 402.862122,283.946503 407.174561,287.437317   C428.811310,304.951843 450.544983,322.346985 472.280640,339.738983   C486.253296,350.919403 500.285919,362.024841 514.298523,373.155304   C515.876404,374.408661 517.976440,375.505341 515.058838,377.923950   C514.464844,378.219727 514.055664,378.236725 513.247192,378.014008   C512.556946,377.872650 512.265991,377.971008 511.974976,378.069366   C509.289948,377.995911 506.604950,377.922424 503.467773,377.410828   C501.895081,375.043701 501.202881,372.591461 499.586487,371.268188   C486.113281,360.238342 472.477112,349.407349 458.876129,338.533813   C435.951782,320.206635 412.989380,301.926849 390.125031,283.525177   C387.505127,281.416626 385.408966,278.657318 383.069977,276.199707  z"/>
<path fill="#8FF1F6" opacity="1.000000" stroke="none" d=" M382.618317,276.142517   C385.408966,278.657318 387.505127,281.416626 390.125031,283.525177   C412.989380,301.926849 435.951782,320.206635 458.876129,338.533813   C472.477112,349.407349 486.113281,360.238342 499.586487,371.268188   C501.202881,372.591461 501.895081,375.043701 503.028137,377.328705   C499.984192,377.463440 496.927704,377.242157 493.441498,376.955811   C489.943054,373.422241 487.281525,369.454224 483.739044,366.567017   C462.204865,349.015991 440.484375,331.693237 418.797089,314.330505   C404.854675,303.168243 390.855194,292.077240 376.904327,280.925507   C375.556641,279.848206 374.371979,278.566986 373.111664,277.380402   C373.246643,276.948730 373.381592,276.517029 373.516571,276.085327   C376.399933,276.085327 379.283295,276.085327 382.618317,276.142517  z"/>
<path fill="#AFF9FA" opacity="1.000000" stroke="none" d=" M512.241211,378.117188   C512.265991,377.971008 512.556946,377.872650 512.946899,377.942688   C512.866333,378.129059 512.686890,378.147003 512.241211,378.117188  z"/>
</svg>